<?xml version="1.0" standalone="no"?>
<!DOCTYPE svg PUBLIC "-//W3C//DTD SVG 20010904//EN"
 "http://www.w3.org/TR/2001/REC-SVG-20010904/DTD/svg10.dtd">
<svg version="1.0" xmlns="http://www.w3.org/2000/svg"
 width="300.000000pt" height="300.000000pt" viewBox="0 0 300.000000 300.000000"
 preserveAspectRatio="xMidYMid meet">
<metadata>
Created by potrace 1.10, written by Peter Selinger 2001-2011
</metadata>
<g transform="translate(0.000000,300.000000) scale(0.100000,-0.100000)"
fill="#000000" stroke="none">
<path d="M1782 2788 c-30 -33 -36 -136 -10 -178 13 -23 15 -31 6 -34 -59 -15
-128 -41 -128 -47 0 -4 -10 -11 -22 -14 -48 -16 -148 -156 -148 -209 0 -20 -1
-20 -36 -1 -34 18 -126 20 -157 4 -47 -25 -50 -67 -6 -93 34 -20 126 -24 159
-6 24 13 39 6 39 -18 0 -9 1 -24 4 -32 2 -8 7 -28 12 -45 4 -16 14 -42 22 -57
7 -15 14 -31 14 -35 0 -5 6 -15 13 -23 13 -16 51 -126 61 -177 4 -18 15 -43
26 -57 19 -24 19 -28 5 -48 -20 -28 -20 -57 -1 -82 9 -12 11 -24 5 -35 -4 -9
-14 -30 -20 -48 -15 -41 -74 -80 -125 -82 -22 -1 -47 -4 -57 -7 -31 -9 -96 72
-103 129 -7 64 -22 93 -74 147 -28 29 -98 60 -138 60 -30 0 -29 17 1 41 37 29
76 106 76 151 0 61 -25 105 -100 179 -79 77 -122 96 -194 85 -75 -12 -133 -59
-184 -151 -39 -71 -43 -85 -38 -125 17 -126 16 -124 56 -160 l40 -35 -45 -28
c-60 -38 -116 -145 -106 -203 5 -28 -3 -76 -26 -169 -18 -71 -33 -137 -33
-145 0 -8 -11 -37 -25 -65 -30 -61 -31 -115 -5 -174 11 -24 20 -52 20 -63 0
-37 33 -123 57 -150 19 -20 24 -33 19 -55 -4 -15 -8 -39 -11 -52 -2 -14 -9
-27 -13 -30 -19 -12 -44 -74 -39 -97 2 -13 1 -24 -3 -24 -6 0 -2 -33 14 -115
7 -40 18 -54 53 -70 50 -24 205 -18 248 10 46 30 95 77 95 90 0 7 6 18 14 24
10 8 19 6 40 -10 21 -17 26 -18 26 -5 0 10 6 13 16 9 13 -5 13 -7 2 -14 -7 -5
-8 -9 -3 -9 30 0 75 70 75 117 0 76 -40 115 -95 92 -30 -13 -30 -13 -5 -17 35
-6 49 -30 50 -82 0 -58 -10 -72 -46 -68 -22 2 -31 11 -43 41 -12 32 -12 44 -1
78 8 22 22 46 32 53 13 9 21 37 31 102 11 78 15 90 37 101 21 10 25 20 27 57
1 29 -3 51 -12 60 -20 20 -20 66 1 66 8 0 13 -4 10 -9 -3 -5 1 -11 9 -15 8 -3
15 -15 15 -27 0 -29 22 -89 32 -89 4 0 8 -6 8 -13 0 -7 19 -17 43 -23 40 -8
42 -11 39 -40 -2 -18 2 -60 8 -94 9 -52 20 -73 60 -122 54 -64 68 -87 80 -129
12 -40 -7 -48 -134 -56 -82 -5 -106 -3 -106 7 0 8 -8 10 -27 6 -14 -4 -29 -3
-32 2 -4 6 -11 4 -18 -4 -11 -11 -6 -14 25 -19 20 -4 48 -10 62 -14 41 -13
159 -13 197 0 34 11 66 36 70 55 1 5 -5 32 -12 59 -8 28 -14 44 -14 38 -1 -7
-5 -13 -10 -13 -5 0 -7 8 -5 18 3 10 -11 34 -35 60 -21 23 -37 42 -34 42 2 0
-3 7 -11 16 -9 8 -17 30 -18 47 -1 39 -3 48 -12 67 -3 9 -5 27 -3 40 4 24 8
25 89 30 96 6 128 23 128 70 0 48 -20 62 -106 74 l-79 11 -3 110 c-2 87 -7
115 -21 135 -20 28 -73 39 -97 19 -13 -11 -20 -8 -43 17 -40 43 -50 65 -43 99
6 33 33 59 75 74 26 9 32 7 57 -21 16 -17 27 -34 25 -38 -2 -3 5 -20 15 -38
20 -33 79 -53 103 -34 11 9 90 24 127 24 8 0 35 -8 60 -17 37 -14 54 -15 95
-7 28 6 68 9 90 8 103 -6 203 95 159 162 -12 18 -13 30 -5 54 6 17 9 33 7 37
-3 4 8 12 24 19 15 7 31 21 35 30 12 29 14 62 3 62 -6 0 -16 7 -22 15 -7 10
-31 16 -66 18 -48 2 -55 5 -52 22 5 27 5 27 38 15 59 -23 124 23 124 87 0 57
23 83 70 83 29 0 48 7 70 28 43 38 44 82 2 125 -37 39 -42 81 -12 97 11 6 25
8 31 4 6 -3 42 -6 80 -6 60 0 74 3 95 23 29 28 30 39 3 73 -19 24 -27 26 -93
26 -64 0 -76 3 -100 25 -26 24 -45 29 -92 26 -29 -3 -56 32 -56 73 0 68 -81
126 -131 93 -20 -13 -24 -12 -40 9 -22 29 -21 37 2 58 16 15 19 30 18 93 -2
65 -5 77 -26 94 -30 25 -43 24 -69 -3z m56 -91 c2 -64 0 -78 -14 -84 -24 -9
-34 14 -34 79 0 68 7 90 29 86 13 -3 17 -19 19 -81z m-3 -181 c0 -14 -14 -22
-65 -35 -108 -27 -176 -93 -200 -192 -16 -66 -8 -112 39 -212 36 -77 72 -177
85 -239 6 -26 9 -27 74 -30 64 -3 67 -4 67 -28 0 -24 -3 -25 -64 -28 -35 -2
-77 2 -92 9 -30 12 -30 13 -49 99 -7 30 -37 111 -67 178 -47 108 -54 132 -54
188 0 96 22 154 85 222 53 58 129 92 196 89 37 -2 45 -5 45 -21z m131 -11 c34
-14 35 -15 29 -62 -6 -45 -4 -50 25 -78 27 -25 39 -30 83 -30 l52 0 10 -39 c9
-40 5 -47 -44 -76 -9 -5 -14 -25 -14 -56 0 -43 3 -51 37 -79 l38 -31 -16 -38
-16 -38 -48 7 c-47 6 -50 5 -81 -30 -29 -33 -31 -41 -25 -81 6 -42 5 -44 -31
-61 l-37 -18 -32 38 c-24 28 -38 37 -63 37 -34 0 -63 22 -63 47 0 29 31 53 70
53 50 0 124 48 150 99 54 106 -18 259 -130 277 -44 7 -73 33 -68 61 1 10 23
28 47 39 24 12 50 33 58 48 16 30 21 31 69 11z m-200 -88 c-3 -11 2 -36 9 -55
13 -30 13 -33 0 -29 -9 4 -37 -17 -74 -54 -52 -53 -59 -64 -51 -84 10 -27 4
-75 -11 -90 -7 -7 -9 -7 -7 0 1 6 -5 21 -14 35 -26 39 -23 190 3 190 5 0 9 6
9 13 0 27 114 111 133 100 5 -3 6 -14 3 -26z m67 -142 c8 4 18 13 21 21 8 21
36 5 36 -20 0 -28 18 -46 47 -46 16 0 23 -6 23 -19 0 -11 -4 -23 -10 -26 -15
-9 -12 -41 4 -55 20 -16 9 -40 -19 -40 -27 0 -49 -24 -41 -45 3 -8 -2 -19 -13
-24 -13 -7 -22 -5 -34 10 -21 24 -29 24 -51 0 -22 -24 -46 -17 -46 14 0 27
-22 47 -46 43 -24 -4 -30 27 -10 48 20 19 20 29 1 48 -23 22 -19 46 8 46 29 0
47 18 47 46 0 30 20 36 46 12 12 -10 28 -16 37 -13z m-388 -15 c0 -12 -17 -16
-82 -18 -78 -3 -83 -2 -83 18 0 20 5 21 83 18 65 -2 82 -6 82 -18z m911 9 c13
-21 -15 -31 -86 -31 -77 0 -86 3 -77 27 5 12 23 15 81 15 43 0 78 -5 82 -11z
m-1297 -103 c26 -25 52 -46 58 -46 7 0 15 -4 18 -10 3 -6 -1 -7 -10 -4 -11 5
-14 2 -9 -9 3 -9 12 -13 19 -11 9 4 18 -10 29 -44 15 -53 12 -90 -9 -107 -6
-5 -19 -25 -29 -42 -9 -18 -19 -33 -22 -33 -3 0 -2 6 2 13 4 6 -13 -7 -39 -30
-50 -46 -69 -50 -132 -28 -22 8 -51 14 -65 14 -17 -1 -19 -3 -7 -6 9 -2 17 -8
17 -13 0 -4 12 -11 26 -14 17 -5 24 -12 20 -21 -4 -11 3 -15 29 -15 19 0 35 4
35 9 0 5 8 11 18 14 9 2 25 8 35 12 12 5 17 2 17 -9 0 -11 9 -16 28 -16 127 0
224 -99 181 -183 -14 -26 -93 -101 -131 -125 -24 -14 -27 -21 -22 -52 3 -19 2
-46 -3 -58 -8 -20 -3 -30 24 -60 63 -69 36 -159 -65 -209 -42 -21 -60 -24 -95
-19 -63 10 -81 27 -102 95 -19 63 -38 91 -50 71 -3 -5 -1 -10 5 -10 13 0 10
-52 -4 -61 -4 -4 -5 -16 -1 -28 4 -14 15 -21 33 -21 15 0 22 -4 16 -8 -16 -10
-27 -51 -26 -95 1 -21 -2 -46 -7 -55 -4 -9 -11 -40 -14 -69 -5 -47 -4 -52 17
-57 21 -5 25 -16 40 -118 25 -167 25 -169 37 -210 5 -21 13 -38 17 -38 12 0
13 83 1 90 -6 4 -12 20 -13 36 -1 16 -5 35 -9 42 -5 7 -4 12 2 12 6 0 18 -11
27 -25 20 -31 26 -166 7 -172 -6 -2 -33 -21 -60 -41 -47 -36 -48 -36 -143 -36
-119 0 -130 4 -130 47 0 19 -7 40 -15 47 -31 25 -7 180 27 180 7 0 7 -4 0 -13
-5 -6 -12 -25 -15 -42 -3 -16 -9 -42 -13 -57 -3 -15 -3 -36 1 -45 6 -16 8 -16
15 3 11 29 48 207 55 269 7 53 25 75 61 75 23 0 24 4 38 120 4 34 13 75 16 75
5 0 10 58 11 115 0 73 22 117 84 172 28 24 34 36 32 65 -2 40 19 58 25 21 2
-14 7 0 14 34 11 60 9 64 -10 27 -22 -43 -40 -45 -105 -13 -80 40 -126 36
-137 -10 -4 -17 -7 -36 -6 -43 2 -9 -3 -9 -23 0 -26 12 -33 49 -16 91 4 12 2
31 -6 48 -20 39 -9 79 38 138 43 54 85 77 163 88 l50 7 -24 23 c-16 15 -32 21
-46 18 -13 -4 -32 2 -47 14 -14 11 -29 20 -34 20 -16 0 -32 43 -36 95 -2 28
-7 57 -11 66 -5 11 0 24 14 37 12 11 32 43 45 70 39 84 120 127 208 111 27 -5
53 -21 86 -53z m662 -148 c25 -27 37 -49 33 -58 -15 -36 -16 -62 -1 -78 19
-20 8 -46 -15 -37 -13 5 -29 48 -28 78 0 4 -6 20 -15 37 -8 16 -15 38 -15 50
0 11 -4 20 -10 20 -5 0 -10 7 -10 15 0 26 21 17 61 -27z m260 -330 c19 -34 -4
-39 -167 -36 -146 3 -159 4 -162 22 -2 10 1 21 6 25 6 3 79 5 163 5 119 -2
154 -5 160 -16z m-661 -92 c0 -12 -5 -28 -10 -36 -7 -11 -2 -22 15 -40 14 -14
26 -36 27 -50 4 -37 -26 -37 -64 2 -19 20 -40 32 -53 30 -18 -2 -18 -2 -2 8 9
6 21 9 26 6 18 -11 33 25 35 79 1 47 3 53 14 38 6 -9 12 -26 12 -37z m588 -10
c6 -28 -15 -36 -94 -36 -75 0 -100 12 -88 44 5 14 20 16 93 14 75 -3 86 -5 89
-22z m-198 -8 c0 -12 -6 -29 -14 -37 -20 -23 -29 -69 -13 -68 49 1 57 -3 57
-33 0 -16 -4 -30 -10 -30 -5 0 -10 -7 -10 -15 0 -19 -31 -35 -67 -35 -33 0
-91 33 -100 57 -8 21 40 63 73 63 25 0 33 15 12 23 -10 3 -10 7 0 20 8 9 20
13 28 10 8 -3 14 1 14 10 0 8 -5 17 -12 19 -19 7 -1 38 22 38 14 0 20 -7 20
-22z m190 -69 c0 -10 6 -18 12 -16 22 4 21 -42 -1 -51 -19 -7 -21 -10 -21 -31
0 -14 -91 -41 -125 -37 -30 3 -49 26 -21 26 9 0 16 6 16 14 0 8 5 18 12 22 7
4 8 3 4 -4 -4 -7 -2 -12 3 -12 15 0 13 11 -3 33 -11 14 -15 15 -19 5 -3 -7 -6
-8 -6 -3 -1 21 17 36 45 37 45 1 54 -1 54 -13 0 -6 -7 -9 -15 -5 -18 7 -19 -3
-1 -27 13 -17 15 -16 37 14 13 18 17 29 11 25 -13 -8 -42 9 -42 24 0 9 43 29
53 23 4 -2 7 -13 7 -24z m-1096 -76 c28 -14 58 -29 66 -33 27 -13 22 -39 -15
-71 -20 -18 -43 -48 -51 -68 -13 -29 -33 -147 -37 -208 -1 -22 -27 -14 -57 15
-31 32 -51 125 -31 145 6 6 11 28 11 49 0 20 4 47 9 60 6 13 17 49 26 81 8 31
18 57 21 57 3 0 29 -12 58 -27z m723 -10 c2 -34 -11 -43 -63 -43 -25 0 -47 -6
-54 -15 -20 -25 -69 -19 -82 9 -12 27 -5 56 12 56 6 0 8 -6 5 -12 -4 -7 0 -5
9 5 14 18 15 18 28 -2 15 -24 33 -27 41 -6 6 13 53 32 87 34 10 1 16 -9 17
-26z m-877 -43 c0 -11 4 -20 10 -20 5 0 7 7 3 16 -4 12 -2 15 8 12 16 -5 16
-30 0 -101 -15 -67 -27 -86 -51 -80 -24 6 -25 16 -3 115 15 73 33 104 33 58z
m650 -260 c0 -166 -1 -164 119 -158 l76 3 3 -32 3 -33 -93 0 c-117 0 -135 5
-155 44 -17 32 -32 268 -20 300 4 10 18 16 37 16 l30 0 0 -140z m-661 23 c18
-70 41 -113 62 -113 24 0 42 -33 27 -48 -7 -7 -17 -12 -23 -12 -19 0 -57 51
-51 68 5 13 2 12 -9 -2 -8 -11 -15 -23 -15 -28 0 -4 -7 -5 -15 -2 -21 8 -19
-2 5 -26 22 -22 26 -60 10 -91 -7 -13 -7 -19 0 -19 5 0 10 6 10 14 0 26 19 27
41 5 21 -21 21 -23 5 -35 -10 -7 -15 -18 -11 -23 9 -15 -24 -26 -43 -15 -19
12 -42 87 -42 137 0 21 -7 49 -17 63 -21 33 -20 104 3 143 27 46 49 40 63 -16z
m546 -69 c-5 -29 -10 -35 -28 -32 -31 4 -33 41 -6 72 20 23 24 24 32 10 5 -8
6 -31 2 -50z m-192 -35 c29 -1 61 1 72 2 15 3 20 -2 22 -26 2 -16 5 -50 8 -75
5 -38 2 -49 -19 -73 -19 -22 -26 -44 -31 -100 -11 -112 -48 -164 -90 -128 -22
18 -22 19 -42 109 -7 35 -22 75 -33 90 -23 31 -24 51 -11 139 11 78 15 85 47
73 14 -6 49 -11 77 -11z m213 -24 c8 -32 -1 -55 -21 -55 -12 0 -15 8 -11 38 3
20 5 38 5 40 1 1 5 2 11 2 5 0 12 -11 16 -25z m-456 -81 c0 -8 -5 -24 -11 -36
-11 -20 -11 -20 -35 3 -30 28 -30 36 -1 42 41 8 47 7 47 -9z"/>
<path d="M1769 2211 c-16 -16 -29 -39 -29 -51 0 -30 53 -80 85 -80 51 0 89 63
69 115 -7 18 -55 45 -79 45 -9 0 -30 -13 -46 -29z m81 -51 c0 -21 -6 -29 -24
-32 -36 -7 -52 26 -26 52 25 25 50 16 50 -20z"/>
<path d="M880 2084 c-111 -33 -115 -37 -100 -108 l11 -56 102 0 c94 0 107 2
169 33 76 36 80 45 48 115 l-19 42 -63 -1 c-36 0 -99 -11 -148 -25z m178 -11
c24 -64 24 -72 -4 -98 -15 -14 -32 -25 -39 -25 -7 0 -23 28 -36 63 -13 34 -26
66 -28 71 -2 5 10 6 26 3 16 -3 35 -2 43 4 22 13 27 11 38 -18z m-114 -35 c8
-13 18 -36 22 -51 l6 -28 -58 3 c-58 3 -59 3 -62 35 -3 26 2 34 25 47 38 21
50 20 67 -6z m-117 -23 c-4 -24 -1 -40 9 -50 18 -18 13 -19 -21 -3 -27 12 -32
36 -15 69 18 32 33 23 27 -16z"/>
<path d="M725 2030 c-3 -5 -1 -10 4 -10 6 0 11 -18 11 -40 0 -28 5 -43 16 -47
10 -4 14 -16 12 -37 -2 -17 2 -32 7 -33 12 -2 9 44 -4 72 -5 11 -12 37 -16 57
-6 39 -19 55 -30 38z"/>
<path d="M686 1645 c-3 -9 0 -15 9 -15 18 0 18 -1 5 -34 -7 -19 -6 -26 3 -26
15 0 49 -58 41 -71 -3 -5 8 -9 25 -9 23 0 29 4 25 15 -4 8 -10 15 -14 15 -4 0
-21 32 -39 70 -31 70 -44 83 -55 55z"/>
<path d="M1118 1623 c23 -2 59 -2 80 0 20 2 1 4 -43 4 -44 0 -61 -2 -37 -4z"/>
<path d="M1018 1489 c-15 -4 -28 -6 -30 -4 -2 2 -1 -20 1 -48 3 -42 5 -48 12
-29 10 27 25 28 39 2 12 -22 35 -26 46 -9 4 7 0 9 -13 5 -17 -5 -22 -1 -26 24
-9 44 -9 45 7 48 9 2 22 -10 31 -30 8 -18 13 -26 11 -17 -2 9 0 21 5 26 29 29
-23 49 -83 32z"/>
<path d="M946 1343 c-9 -23 12 -43 24 -23 7 12 12 12 22 2 9 -9 9 -12 -1 -12
-7 0 -11 -6 -8 -15 8 -19 -13 -31 -24 -14 -7 11 -9 11 -9 1 0 -18 29 -27 43
-13 15 15 80 14 95 -1 6 -6 15 -9 19 -5 4 4 1 13 -5 19 -7 7 -12 19 -12 28 0
13 -7 15 -31 12 -20 -3 -44 3 -69 17 -34 19 -38 20 -44 4z"/>
<path d="M786 908 c-9 -35 -7 -50 6 -46 18 6 29 68 13 68 -7 0 -15 -10 -19
-22z"/>
<path d="M720 800 c0 -5 22 -10 49 -10 28 0 53 5 56 10 4 6 -15 10 -49 10 -31
0 -56 -4 -56 -10z"/>
<path d="M636 1314 c-3 -9 -6 -25 -6 -37 0 -27 16 -11 25 26 8 29 -8 39 -19
11z"/>
<path d="M594 1095 c-6 -15 4 -71 10 -64 2 2 6 21 9 42 5 36 -8 51 -19 22z"/>
<path d="M1417 2662 c-10 -10 -17 -27 -17 -38 0 -31 58 -103 102 -125 37 -19
41 -19 64 -4 38 25 32 64 -19 116 -76 76 -99 85 -130 51z m90 -64 c54 -54 63
-72 39 -81 -19 -8 -120 97 -113 117 9 24 17 20 74 -36z"/>
<path d="M2105 2629 c-30 -28 -57 -59 -60 -70 -14 -44 49 -93 80 -62 8 8 15
11 15 7 0 -14 71 60 87 89 13 25 13 31 -2 53 -8 13 -19 24 -23 25 -4 0 -15 2
-25 4 -10 2 -40 -17 -72 -46z m102 5 c4 -12 -11 -33 -51 -72 -53 -51 -58 -54
-74 -38 -15 15 -12 20 38 71 57 57 76 66 87 39z"/>
<path d="M1608 1268 c-30 -29 -29 -16 -31 -250 0 -75 3 -102 17 -123 33 -50
82 -46 112 10 10 19 20 35 21 35 1 0 17 -9 35 -20 41 -25 54 -25 101 0 39 21
57 19 57 -4 0 -7 9 -25 20 -38 23 -30 58 -28 90 7 21 22 22 33 22 177 -1 212
-11 234 -113 229 -37 -1 -65 -30 -94 -95 -14 -31 -27 -56 -30 -56 -4 0 -17 26
-31 57 -14 31 -37 67 -51 79 -36 31 -89 28 -125 -8z m115 -30 c8 -13 32 -67
52 -120 21 -54 39 -97 41 -95 1 1 21 49 44 107 23 58 46 111 52 118 12 13 84
17 92 4 3 -5 6 -85 7 -178 l1 -169 -31 -3 -31 -3 0 138 -1 138 -47 -115 c-47
-115 -47 -115 -83 -118 -21 -2 -40 2 -46 10 -6 7 -27 58 -48 113 -21 55 -41
103 -44 107 -3 4 -5 -56 -3 -133 l4 -140 -34 3 -33 3 -3 151 c-3 185 2 204 58
204 30 0 43 -5 53 -22z"/>
<path d="M2126 1269 l-30 -26 -3 -158 c-1 -103 2 -165 9 -179 45 -84 134 -44
137 62 1 32 18 27 37 -10 9 -18 32 -47 51 -66 28 -27 41 -32 74 -30 23 1 46 9
56 20 14 16 19 16 37 5 13 -8 43 -13 76 -11 30 1 76 3 101 3 45 1 89 25 89 49
0 21 -23 61 -31 56 -5 -3 -9 -1 -9 4 0 5 -13 7 -30 4 -36 -5 -36 -2 -9 29 45
52 -1 166 -64 156 -33 -4 -51 14 -43 46 4 17 0 30 -14 42 -22 20 -67 28 -76
14 -3 -5 -17 -3 -32 5 -50 25 -99 -13 -103 -82 -3 -48 -13 -50 -37 -7 -9 17
-20 32 -24 33 -5 2 -8 9 -8 16 0 17 -56 48 -93 50 -21 2 -40 -6 -61 -25z m100
-17 c7 -4 46 -68 88 -142 l76 -135 0 143 0 142 30 0 30 0 -2 -177 -3 -178 -46
-3 -45 -3 -78 141 c-43 77 -79 140 -80 140 -1 0 0 -63 2 -140 l4 -140 -36 0
-36 0 0 161 c0 91 4 169 10 180 11 19 63 27 86 11z m313 -6 c15 -18 3 -46 -19
-46 -10 0 -21 7 -24 16 -6 16 9 44 24 44 4 0 13 -6 19 -14z m33 -103 c9 -10
19 -33 23 -50 3 -18 11 -33 16 -33 17 0 23 32 10 53 -10 14 -10 22 -1 31 17
17 40 -20 40 -66 0 -45 -19 -58 -84 -58 -25 0 -46 -4 -46 -10 0 -5 -9 -10 -20
-10 -23 0 -27 29 -8 48 9 9 9 15 0 24 -17 17 -15 48 5 70 20 23 45 23 65 1z
m88 -208 c0 -25 -1 -25 -85 -25 -84 0 -85 0 -85 25 0 25 1 25 85 25 84 0 85 0
85 -25z m65 0 c0 -13 -8 -21 -22 -23 -19 -3 -23 1 -23 23 0 22 4 26 23 23 14
-2 22 -10 22 -23z"/>
<path d="M2530 1105 c-10 -12 -10 -18 0 -30 19 -23 49 -19 43 5 -8 31 -28 43
-43 25z"/>
<path d="M1160 851 c0 -6 -8 -8 -17 -5 -15 5 -16 4 -3 -5 17 -12 89 -11 96 1
3 4 -6 8 -20 8 -13 0 -31 3 -40 6 -9 3 -16 1 -16 -5z"/>
<path d="M1636 824 c-23 -23 -19 -43 10 -55 21 -8 31 -6 47 8 15 13 21 15 24
6 7 -19 31 -15 45 7 17 26 22 25 36 -4 11 -24 12 -24 41 -10 29 14 50 44 31
44 -6 0 -10 -7 -10 -15 0 -8 -4 -15 -10 -15 -5 0 -10 9 -10 19 0 10 -7 22 -16
25 -10 4 -13 2 -7 -6 11 -20 11 -49 -1 -45 -6 2 -12 13 -14 25 -3 18 -6 20
-28 10 -13 -6 -24 -17 -24 -25 0 -7 -4 -13 -10 -13 -5 0 -10 9 -10 20 0 11 5
20 12 20 6 0 8 3 5 7 -4 3 -15 -1 -25 -10 -16 -15 -19 -15 -30 3 -15 24 -35
25 -56 4z m44 -24 c0 -21 -33 -29 -45 -10 -9 15 4 30 26 30 12 0 19 -7 19 -20z"/>
<path d="M1937 833 c-12 -11 -7 -40 8 -53 13 -11 18 -10 29 5 7 10 11 28 8 39
-5 17 -7 15 -18 -14 -9 -25 -13 -29 -14 -15 -1 11 -2 26 -1 33 2 13 -2 15 -12
5z"/>
<path d="M2028 805 c-2 -19 0 -35 4 -35 4 0 8 7 8 15 0 22 15 18 33 -7 12 -19
19 -21 34 -12 24 15 29 52 7 61 -9 3 -25 1 -35 -5 -22 -14 -42 -16 -34 -3 3 5
1 12 -4 15 -5 3 -11 -10 -13 -29z m92 -5 c0 -13 -7 -20 -20 -20 -13 0 -20 7
-20 20 0 13 7 20 20 20 13 0 20 -7 20 -20z"/>
<path d="M2230 818 c-18 -19 -22 -20 -30 -8 -8 12 -10 10 -10 -7 0 -13 -4 -23
-10 -23 -5 0 -10 12 -10 27 0 29 -13 24 -15 -7 -2 -24 23 -34 42 -18 13 10 19
8 33 -10 22 -27 28 -27 57 -1 17 17 26 19 36 11 10 -9 12 -4 9 25 -3 23 -7 31
-13 22 -4 -7 -5 -17 -3 -21 10 -15 -6 -8 -26 12 -25 25 -34 25 -60 -2z m50
-18 c0 -13 -7 -20 -19 -20 -22 0 -35 15 -26 30 12 19 45 11 45 -10z"/>
<path d="M1573 726 c-16 -8 -20 -15 -13 -26 8 -13 10 -13 10 2 0 35 49 29 51
-6 1 -16 2 -17 6 -3 6 23 18 22 35 -5 9 -14 20 -19 31 -15 18 7 23 52 7 62 -6
4 -8 -6 -6 -25 4 -35 -17 -37 -22 -3 -2 15 -9 19 -22 16 -10 -3 -26 0 -37 5
-13 7 -25 7 -40 -2z"/>
<path d="M1748 729 c-25 -14 -22 -48 4 -58 44 -16 74 36 36 61 -16 10 -19 10
-40 -3z m42 -24 c0 -21 -30 -31 -40 -14 -11 17 -3 29 21 29 10 0 19 -7 19 -15z"/>
<path d="M2048 729 c-33 -19 -17 -79 21 -79 8 0 23 7 33 17 15 13 23 14 43 5
14 -6 31 -9 40 -6 23 9 29 44 11 63 -15 15 -19 15 -46 -1 -25 -14 -31 -14 -41
-2 -13 16 -37 18 -61 3z m52 -26 c-1 -49 -44 -57 -48 -9 -1 22 2 26 23 26 17
0 25 -5 25 -17z m90 -4 c0 -14 -5 -19 -17 -17 -26 5 -29 38 -4 38 15 0 21 -6
21 -21z"/>
<path d="M2243 733 c-7 -2 -13 -14 -12 -26 0 -15 2 -17 6 -7 13 33 53 29 53
-6 0 -20 -18 -17 -22 4 -3 14 -5 13 -10 -5 -5 -18 -2 -23 13 -23 24 0 36 27
22 49 -11 17 -30 23 -50 14z"/>
<path d="M2335 724 c-25 -19 -9 -49 26 -49 27 0 37 28 19 50 -15 18 -20 18
-45 -1z m45 -24 c0 -13 -7 -20 -20 -20 -13 0 -20 7 -20 20 0 13 7 20 20 20 13
0 20 -7 20 -20z"/>
<path d="M2426 724 c-20 -20 -20 -27 2 -47 26 -23 41 -21 54 8 19 43 -23 73
-56 39z m49 -24 c0 -22 -39 -19 -43 3 -3 15 1 18 20 15 12 -2 23 -10 23 -18z"/>
</g>
</svg>
