<?xml version="1.0" standalone="no"?>
<!DOCTYPE svg PUBLIC "-//W3C//DTD SVG 20010904//EN"
 "http://www.w3.org/TR/2001/REC-SVG-20010904/DTD/svg10.dtd">
<svg version="1.0" xmlns="http://www.w3.org/2000/svg"
 width="256.000000pt" height="256.000000pt" viewBox="0 0 256.000000 256.000000"
 preserveAspectRatio="xMidYMid meet">
<metadata>
Created by potrace 1.16, written by Peter Selinger 2001-2019
</metadata>
<g transform="translate(0.000000,256.000000) scale(0.100000,-0.100000)"
fill="#000000" stroke="none">
<path d="M0 1280 l0 -1280 1280 0 1280 0 0 1280 0 1280 -1280 0 -1280 0 0
-1280z m1567 875 c8 -22 1 -26 -54 -36 -96 -18 -168 -96 -179 -196 -6 -43 -1
-62 39 -153 43 -101 58 -145 71 -202 6 -25 10 -27 64 -30 43 -2 57 -7 57 -18
0 -12 -15 -16 -66 -18 -77 -3 -90 6 -107 85 -6 28 -30 93 -54 145 -72 158 -62
271 32 363 58 57 183 95 197 60z m133 -71 c0 -35 6 -51 26 -71 22 -21 31 -24
64 -19 32 5 41 3 50 -13 16 -32 12 -54 -17 -77 -37 -29 -36 -88 1 -121 28 -24
32 -43 15 -74 -9 -17 -17 -19 -47 -14 -32 5 -41 2 -66 -23 -22 -24 -27 -37
-25 -67 3 -27 -1 -40 -16 -51 -29 -21 -49 -17 -73 16 -16 21 -31 30 -50 30
-30 0 -52 16 -52 36 0 23 31 44 64 44 77 0 156 101 141 179 -14 75 -67 135
-130 147 -66 12 -72 64 -10 84 19 6 35 15 35 20 0 5 7 15 15 24 12 12 22 13
45 4 27 -9 30 -14 30 -54z m-143 -144 c6 0 16 7 23 15 10 12 16 13 26 4 8 -6
12 -15 9 -19 -7 -11 23 -40 41 -40 17 0 18 -14 3 -41 -8 -16 -7 -25 5 -38 17
-19 10 -37 -19 -42 -11 -3 -21 -13 -23 -24 -6 -32 -19 -38 -43 -21 -21 14 -25
14 -47 0 -26 -17 -38 -11 -44 21 -2 11 -12 21 -23 23 -33 6 -40 20 -22 40 17
19 14 52 -4 52 -21 0 -6 22 21 31 22 8 30 17 30 34 0 28 19 37 41 19 8 -8 20
-14 26 -14z m-674 -75 c18 -15 42 -40 53 -56 10 -16 25 -29 31 -29 14 0 28
-44 19 -59 -3 -5 0 -11 6 -14 10 -3 10 -7 2 -18 -6 -8 -17 -31 -23 -51 -7 -21
-17 -38 -22 -38 -5 0 -23 -13 -41 -30 -35 -34 -43 -35 -115 -16 -45 12 -54 12
-73 -1 -32 -22 -57 4 -53 54 1 21 0 30 -3 20 -4 -11 -12 -16 -21 -13 -11 5
-13 1 -8 -17 4 -16 3 -18 -3 -7 -13 21 -23 130 -12 130 5 0 10 -17 12 -37 2
-20 9 -38 16 -41 14 -4 10 28 -10 79 -8 22 -5 36 15 76 30 57 43 70 94 89 50
18 95 11 136 -21z m65 -361 c62 -9 82 -17 115 -49 31 -30 36 -77 11 -113 -9
-13 -39 -41 -67 -63 -50 -40 -51 -40 -59 -18 -8 20 -13 21 -61 16 -56 -5 -129
-35 -121 -49 7 -11 -2 -10 -40 6 -35 15 -44 28 -95 134 -26 53 -29 66 -18 83
12 20 91 49 134 49 13 0 23 6 24 13 0 10 2 10 6 0 7 -19 53 -16 88 5 23 14 31
16 33 6 2 -7 24 -16 50 -20z m-141 -390 c6 -15 8 -15 20 2 11 14 14 15 13 4
-4 -31 1 -35 50 -35 41 0 50 3 50 18 0 25 16 21 39 -12 31 -44 27 -87 -12
-126 -44 -44 -104 -62 -156 -46 -36 10 -42 17 -61 69 -12 31 -26 62 -32 69 -7
9 -2 21 20 43 34 33 59 38 69 14z m303 -157 c0 -75 4 -117 12 -125 7 -7 42
-12 85 -12 71 0 73 -1 73 -25 0 -25 -1 -25 -86 -25 -47 0 -94 5 -104 10 -28
15 -40 72 -40 188 l0 102 30 0 30 0 0 -113z m396 18 c20 -52 40 -95 43 -95 3
0 22 42 42 93 l36 92 44 0 44 0 3 -148 3 -148 -28 3 -28 3 -5 105 -5 105 -34
-88 c-27 -69 -39 -89 -57 -93 -13 -4 -30 -4 -37 -1 -7 3 -31 47 -53 98 l-39
94 -3 -112 c-3 -113 -3 -113 -27 -113 l-25 0 0 143 c0 79 3 147 7 150 3 4 23
7 44 7 l37 0 38 -95z m452 2 c84 -151 81 -150 82 -19 l0 112 25 0 26 0 -3
-147 -3 -148 -40 0 -40 0 -60 107 c-33 59 -63 108 -67 108 -5 0 -8 -49 -8
-110 l0 -110 -25 0 -25 0 0 143 c0 79 3 147 7 150 3 4 23 7 43 7 36 0 38 -2
88 -93z m-938 -228 c0 -4 15 -10 33 -13 33 -6 33 -7 43 -85 10 -73 14 -82 61
-139 48 -57 74 -115 58 -130 -9 -9 -140 -16 -167 -8 -33 8 -46 35 -64 128 -9
45 -20 91 -26 102 -10 19 -11 18 -29 -5 l-18 -24 6 45 c9 78 18 103 40 111 16
6 21 5 17 -5 -6 -16 33 -28 54 -17 12 7 8 12 -16 27 -34 19 -46 39 -36 56 6
10 43 -27 44 -43z m-323 -15 c-3 -20 1 -27 18 -34 25 -10 27 -14 51 -170 9
-58 18 -117 21 -131 11 -58 -107 -105 -210 -83 -38 8 -42 12 -47 44 -3 20 5
74 17 125 12 50 25 116 29 148 6 54 22 74 39 47 8 -13 65 -13 85 0 11 7 9 11
-13 19 -29 11 -37 31 -12 31 8 0 15 7 15 15 0 8 3 15 6 15 4 0 4 -12 1 -26z"/>
<path d="M785 1793 c-11 -3 -44 -14 -72 -25 -52 -19 -53 -20 -53 -61 0 -68 7
-72 107 -69 72 3 98 8 141 30 29 14 57 33 62 42 10 19 2 62 -10 55 -5 -3 -11
4 -15 15 -6 18 -14 20 -73 19 -37 -1 -76 -4 -87 -6z"/>
</g>
</svg>
